<svg width="351" height="275" viewBox="0 0 351 275" fill="none" xmlns="http://www.w3.org/2000/svg">
<path d="M168.308 273.46C240.748 273.46 299.476 214.732 299.476 142.034C299.476 69.335 240.49 10.6069 168.308 10.6069C95.8686 10.6069 37.1406 69.335 37.1406 142.034C37.1406 214.732 95.8686 273.46 168.308 273.46Z" fill="#EFF6FF" stroke="#CBD5E0" stroke-width="2" stroke-miterlimit="10"/>
<path d="M290.939 55.8826C296.797 55.8826 301.546 51.1336 301.546 45.2753C301.546 39.4171 296.797 34.6681 290.939 34.6681C285.081 34.6681 280.331 39.4171 280.331 45.2753C280.331 51.1336 285.081 55.8826 290.939 55.8826Z" fill="#EFF6FF"/>
<path d="M306.462 14.488C310.462 14.488 313.706 11.2447 313.706 7.24399C313.706 3.24324 310.462 0 306.462 0C302.461 0 299.218 3.24324 299.218 7.24399C299.218 11.2447 302.461 14.488 306.462 14.488Z" fill="#EFF6FF"/>
<path d="M44.1258 55.6238C48.1265 55.6238 51.3698 52.3806 51.3698 48.3798C51.3698 44.3791 48.1265 41.1358 44.1258 41.1358C40.125 41.1358 36.8818 44.3791 36.8818 48.3798C36.8818 52.3806 40.125 55.6238 44.1258 55.6238Z" fill="#EFF6FF"/>
<path d="M13.644 212.218C21.0739 212.218 27.0971 206.195 27.0971 198.765C27.0971 191.335 21.0739 185.312 13.644 185.312C6.21402 185.312 0.190857 191.335 0.190857 198.765C0.190857 206.195 6.21402 212.218 13.644 212.218Z" fill="#EFF6FF"/>
<path d="M350.804 241.425C350.616 247.811 344.981 252.695 338.595 252.695H255.944C252.939 252.695 250.497 254.949 250.309 257.767C250.121 260.96 252.563 263.402 255.756 263.402H276.795C278.109 263.402 279.237 264.529 279.237 265.844C279.237 267.159 278.109 268.286 276.795 268.286H152.819C146.432 268.286 140.985 263.402 140.609 257.016C140.421 250.441 145.681 244.994 152.255 244.994H170.476C173.106 244.618 175.36 242.364 175.36 239.546C175.36 236.541 172.918 234.099 169.913 234.099H113.936C104.544 234.099 96.4665 227.149 95.9029 217.757C95.1516 207.613 103.229 199.16 113.372 199.16H278.297C287.877 199.16 295.767 207.05 295.767 216.63C295.767 220.762 294.264 224.519 292.01 227.524C293.137 228.088 294.076 228.652 295.015 229.403H339.722C345.732 229.591 350.992 234.85 350.804 241.425Z" fill="#A0AEC0"/>
<path d="M227.86 78.4214L178.457 88.0013L95.6192 104.156L59.1779 111.294C52.6034 112.609 48.0952 118.62 48.6588 125.382L55.7967 205.215C56.3603 211.789 61.9955 217.049 68.57 217.049L240.445 219.115L227.86 78.4214Z" fill="white" stroke="#CBD5E0" stroke-width="2" stroke-miterlimit="10"/>
<path d="M248.334 84.0572L259.793 210.099C259.793 211.038 259.229 211.977 258.29 212.165L244.577 215.171L232.368 81.8031L246.456 82.1788C247.395 82.1788 248.146 83.118 248.334 84.0572Z" fill="white" stroke="#CBD5E0" stroke-width="2" stroke-miterlimit="10"/>
<path d="M216.965 73.5378L230.865 226.065C231.053 227.192 232.18 227.944 233.119 227.38L246.644 222.121C248.334 221.369 249.461 219.491 249.274 217.612L236.688 78.046C236.5 76.1676 235.185 74.6648 233.307 74.1013L219.031 71.6594C217.904 71.4715 216.965 72.4107 216.965 73.5378Z" fill="white" stroke="#CBD5E0" stroke-width="2" stroke-miterlimit="10"/>
<path d="M180.336 87.8137L97.4975 103.968C96.5583 108.476 96.1826 112.985 96.7462 117.681C99.0003 143.039 121.353 161.636 146.524 159.381C171.695 157.127 190.291 134.774 188.037 109.603C187.286 101.526 184.656 94.2003 180.336 87.8137Z" fill="#CBD5E0" stroke="#A0AEC0" stroke-width="2" stroke-miterlimit="10"/>
</svg>
